<mxfile host="app.diagrams.net" modified="2021-03-11T22:05:39.997Z" agent="5.0 (Windows NT 10.0; Win64; x64) AppleWebKit/537.36 (KHTML, like Gecko) Chrome/89.0.4389.72 Safari/537.36 Edg/89.0.774.45" etag="H8Waq1bcBqvOpa9gf5g9" version="14.4.6" type="github">
  <diagram id="RGRsgd-wHVOajfrSuQhg" name="Page-1">
    <mxGraphModel dx="1117" dy="637" grid="1" gridSize="10" guides="1" tooltips="1" connect="1" arrows="1" fold="1" page="1" pageScale="1" pageWidth="827" pageHeight="1169" math="0" shadow="0">
      <root>
        <mxCell id="0" />
        <mxCell id="1" parent="0" />
        <mxCell id="ymNveoy30TpZB8kOZTbz-1" value="" style="edgeStyle=orthogonalEdgeStyle;rounded=0;orthogonalLoop=1;jettySize=auto;html=1;" edge="1" parent="1" source="ymNveoy30TpZB8kOZTbz-2" target="ymNveoy30TpZB8kOZTbz-6">
          <mxGeometry relative="1" as="geometry" />
        </mxCell>
        <mxCell id="ymNveoy30TpZB8kOZTbz-2" value="def control_brightness(float&amp;nbsp;&lt;span style=&quot;font-size: 9.0pt ; font-family: &amp;#34;arial&amp;#34; , sans-serif&quot;&gt;brightness_hours&lt;/span&gt;)" style="ellipse;whiteSpace=wrap;html=1;" vertex="1" parent="1">
          <mxGeometry x="75" y="80" width="270" height="110" as="geometry" />
        </mxCell>
        <mxCell id="ymNveoy30TpZB8kOZTbz-3" value="" style="edgeStyle=orthogonalEdgeStyle;rounded=0;orthogonalLoop=1;jettySize=auto;html=1;" edge="1" parent="1" target="ymNveoy30TpZB8kOZTbz-11">
          <mxGeometry relative="1" as="geometry">
            <mxPoint x="210" y="412" as="sourcePoint" />
          </mxGeometry>
        </mxCell>
        <mxCell id="ymNveoy30TpZB8kOZTbz-5" value="" style="edgeStyle=orthogonalEdgeStyle;rounded=0;orthogonalLoop=1;jettySize=auto;html=1;" edge="1" parent="1" source="ymNveoy30TpZB8kOZTbz-6" target="ymNveoy30TpZB8kOZTbz-8">
          <mxGeometry relative="1" as="geometry" />
        </mxCell>
        <mxCell id="ymNveoy30TpZB8kOZTbz-6" value="Klassen importieren" style="rounded=0;whiteSpace=wrap;html=1;" vertex="1" parent="1">
          <mxGeometry x="150" y="220" width="120" height="60" as="geometry" />
        </mxCell>
        <mxCell id="ymNveoy30TpZB8kOZTbz-8" value="Variablen deklarieren" style="rounded=0;whiteSpace=wrap;html=1;" vertex="1" parent="1">
          <mxGeometry x="150" y="310" width="120" height="60" as="geometry" />
        </mxCell>
        <mxCell id="ymNveoy30TpZB8kOZTbz-44" value="" style="edgeStyle=orthogonalEdgeStyle;rounded=0;orthogonalLoop=1;jettySize=auto;html=1;endArrow=classic;endFill=1;" edge="1" parent="1" source="ymNveoy30TpZB8kOZTbz-11" target="ymNveoy30TpZB8kOZTbz-38">
          <mxGeometry relative="1" as="geometry" />
        </mxCell>
        <mxCell id="ymNveoy30TpZB8kOZTbz-11" value="stoppuhr &amp;lt;&amp;nbsp;&lt;span style=&quot;font-family: &amp;#34;arial&amp;#34; , sans-serif&quot;&gt;brightness_hours * 60&lt;/span&gt;" style="rhombus;whiteSpace=wrap;html=1;" vertex="1" parent="1">
          <mxGeometry x="90" y="449" width="240" height="115" as="geometry" />
        </mxCell>
        <mxCell id="ymNveoy30TpZB8kOZTbz-12" value="" style="edgeStyle=orthogonalEdgeStyle;rounded=0;orthogonalLoop=1;jettySize=auto;html=1;" edge="1" parent="1" source="ymNveoy30TpZB8kOZTbz-33" target="ymNveoy30TpZB8kOZTbz-29">
          <mxGeometry relative="1" as="geometry" />
        </mxCell>
        <mxCell id="ymNveoy30TpZB8kOZTbz-29" value="Ende" style="ellipse;whiteSpace=wrap;html=1;" vertex="1" parent="1">
          <mxGeometry x="150" y="1002" width="120" height="80" as="geometry" />
        </mxCell>
        <mxCell id="ymNveoy30TpZB8kOZTbz-30" value="" style="endArrow=none;html=1;endFill=0;" edge="1" parent="1" target="ymNveoy30TpZB8kOZTbz-33">
          <mxGeometry width="50" height="50" relative="1" as="geometry">
            <mxPoint x="210" y="922" as="sourcePoint" />
            <mxPoint x="560" y="922" as="targetPoint" />
          </mxGeometry>
        </mxCell>
        <mxCell id="ymNveoy30TpZB8kOZTbz-31" value="" style="endArrow=none;html=1;endFill=0;" edge="1" parent="1">
          <mxGeometry width="50" height="50" relative="1" as="geometry">
            <mxPoint x="560" y="922" as="sourcePoint" />
            <mxPoint x="560" y="432" as="targetPoint" />
          </mxGeometry>
        </mxCell>
        <mxCell id="ymNveoy30TpZB8kOZTbz-32" value="" style="endArrow=none;html=1;endFill=0;" edge="1" parent="1">
          <mxGeometry width="50" height="50" relative="1" as="geometry">
            <mxPoint x="560" y="432" as="sourcePoint" />
            <mxPoint x="210" y="432" as="targetPoint" />
          </mxGeometry>
        </mxCell>
        <mxCell id="ymNveoy30TpZB8kOZTbz-33" value="Sleep 60" style="rounded=0;whiteSpace=wrap;html=1;" vertex="1" parent="1">
          <mxGeometry x="150" y="902" width="120" height="60" as="geometry" />
        </mxCell>
        <mxCell id="ymNveoy30TpZB8kOZTbz-34" value="" style="edgeStyle=orthogonalEdgeStyle;rounded=0;orthogonalLoop=1;jettySize=auto;html=1;endArrow=none;endFill=0;" edge="1" parent="1" target="ymNveoy30TpZB8kOZTbz-33">
          <mxGeometry relative="1" as="geometry">
            <mxPoint x="560" y="922" as="sourcePoint" />
            <mxPoint x="210" y="1002" as="targetPoint" />
            <Array as="points">
              <mxPoint x="560" y="932" />
            </Array>
          </mxGeometry>
        </mxCell>
        <mxCell id="ymNveoy30TpZB8kOZTbz-37" value="" style="endArrow=none;html=1;entryX=0.5;entryY=0;entryDx=0;entryDy=0;" edge="1" parent="1" target="ymNveoy30TpZB8kOZTbz-33">
          <mxGeometry width="50" height="50" relative="1" as="geometry">
            <mxPoint x="210" y="872" as="sourcePoint" />
            <mxPoint x="290" y="952" as="targetPoint" />
          </mxGeometry>
        </mxCell>
        <mxCell id="ymNveoy30TpZB8kOZTbz-54" value="" style="edgeStyle=orthogonalEdgeStyle;rounded=0;orthogonalLoop=1;jettySize=auto;html=1;endArrow=classic;endFill=1;" edge="1" parent="1" source="ymNveoy30TpZB8kOZTbz-38" target="ymNveoy30TpZB8kOZTbz-45">
          <mxGeometry relative="1" as="geometry" />
        </mxCell>
        <mxCell id="ymNveoy30TpZB8kOZTbz-38" value="def&amp;nbsp;&lt;span&gt;get_brightness()&lt;/span&gt;&lt;p class=&quot;MsoNormal&quot;&gt;&lt;/p&gt;" style="shape=process;whiteSpace=wrap;html=1;backgroundOutline=1;" vertex="1" parent="1">
          <mxGeometry x="125" y="602" width="170" height="70" as="geometry" />
        </mxCell>
        <mxCell id="ymNveoy30TpZB8kOZTbz-39" value="" style="endArrow=classic;html=1;exitX=0.5;exitY=1;exitDx=0;exitDy=0;entryX=0.5;entryY=0;entryDx=0;entryDy=0;" edge="1" parent="1" source="ymNveoy30TpZB8kOZTbz-8" target="ymNveoy30TpZB8kOZTbz-11">
          <mxGeometry width="50" height="50" relative="1" as="geometry">
            <mxPoint x="150" y="520" as="sourcePoint" />
            <mxPoint x="200" y="470" as="targetPoint" />
          </mxGeometry>
        </mxCell>
        <mxCell id="ymNveoy30TpZB8kOZTbz-49" value="" style="edgeStyle=orthogonalEdgeStyle;rounded=0;orthogonalLoop=1;jettySize=auto;html=1;endArrow=classic;endFill=1;" edge="1" parent="1" source="ymNveoy30TpZB8kOZTbz-45" target="ymNveoy30TpZB8kOZTbz-48">
          <mxGeometry relative="1" as="geometry" />
        </mxCell>
        <mxCell id="ymNveoy30TpZB8kOZTbz-45" value="get_brightness() = True" style="rhombus;whiteSpace=wrap;html=1;" vertex="1" parent="1">
          <mxGeometry x="137.5" y="697" width="145" height="110" as="geometry" />
        </mxCell>
        <mxCell id="ymNveoy30TpZB8kOZTbz-51" value="" style="edgeStyle=orthogonalEdgeStyle;rounded=0;orthogonalLoop=1;jettySize=auto;html=1;endArrow=classic;endFill=1;" edge="1" parent="1" source="ymNveoy30TpZB8kOZTbz-46" target="ymNveoy30TpZB8kOZTbz-33">
          <mxGeometry relative="1" as="geometry" />
        </mxCell>
        <mxCell id="ymNveoy30TpZB8kOZTbz-46" value="&lt;span&gt;def_control(pin, on)&lt;/span&gt;" style="shape=process;whiteSpace=wrap;html=1;backgroundOutline=1;" vertex="1" parent="1">
          <mxGeometry x="360" y="832" width="120" height="60" as="geometry" />
        </mxCell>
        <mxCell id="ymNveoy30TpZB8kOZTbz-50" value="" style="edgeStyle=orthogonalEdgeStyle;rounded=0;orthogonalLoop=1;jettySize=auto;html=1;endArrow=classic;endFill=1;" edge="1" parent="1" source="ymNveoy30TpZB8kOZTbz-48" target="ymNveoy30TpZB8kOZTbz-46">
          <mxGeometry relative="1" as="geometry" />
        </mxCell>
        <mxCell id="ymNveoy30TpZB8kOZTbz-48" value="&lt;span lang=&quot;DE&quot; style=&quot;font-size: 9.0pt ; font-family: &amp;#34;arial&amp;#34; , sans-serif&quot;&gt;Venso E27 â€“ Pflanzenlampe starten&lt;/span&gt;" style="rounded=0;whiteSpace=wrap;html=1;" vertex="1" parent="1">
          <mxGeometry x="350" y="723" width="140" height="58" as="geometry" />
        </mxCell>
        <mxCell id="ymNveoy30TpZB8kOZTbz-52" value="False" style="text;html=1;strokeColor=none;fillColor=none;align=center;verticalAlign=middle;whiteSpace=wrap;rounded=0;" vertex="1" parent="1">
          <mxGeometry x="285" y="726" width="40" height="20" as="geometry" />
        </mxCell>
        <mxCell id="ymNveoy30TpZB8kOZTbz-53" value="" style="endArrow=classic;html=1;exitX=0.5;exitY=1;exitDx=0;exitDy=0;" edge="1" parent="1" source="ymNveoy30TpZB8kOZTbz-45">
          <mxGeometry width="50" height="50" relative="1" as="geometry">
            <mxPoint x="120" y="782" as="sourcePoint" />
            <mxPoint x="210" y="902" as="targetPoint" />
          </mxGeometry>
        </mxCell>
        <mxCell id="ymNveoy30TpZB8kOZTbz-55" value="True" style="text;html=1;strokeColor=none;fillColor=none;align=center;verticalAlign=middle;whiteSpace=wrap;rounded=0;" vertex="1" parent="1">
          <mxGeometry x="160" y="807" width="40" height="20" as="geometry" />
        </mxCell>
      </root>
    </mxGraphModel>
  </diagram>
</mxfile>
